<svg width="403" height="312" viewBox="0 0 403 312" fill="none" xmlns="http://www.w3.org/2000/svg">
<path d="M155.596 312.003C145.066 312.003 134.566 310.942 124.256 308.832C104.356 304.742 85.4661 296.762 68.6561 285.362C-2.78387 237.002 -21.4939 139.883 26.8661 68.4425C43.7261 43.5425 67.4061 24.0325 95.0761 12.2625C104.476 8.2725 114.256 5.2325 124.266 3.1725C144.946 -1.0575 166.266 -1.0575 186.946 3.1725C206.846 7.2625 225.736 15.2425 242.546 26.6425C244.016 27.6425 245.476 28.6625 246.916 29.7125C255.846 36.2225 257.866 48.7125 251.386 57.6625L232.286 84.0125C225.856 92.8825 213.436 95.0025 204.546 88.5925C173.716 66.3725 130.396 67.5525 100.656 94.1825C68.6661 122.823 64.5561 175.042 91.6661 208.342C121.196 244.612 167.986 243.603 192.806 230.423C197.406 228.263 201.326 225.892 204.646 223.542C213.626 217.182 226.086 219.403 232.546 228.312L251.396 254.312C257.866 263.243 255.896 275.722 246.986 282.212C237.426 289.192 227.076 295.062 216.146 299.712C206.746 303.702 196.966 306.742 186.956 308.802C176.646 310.912 166.146 311.973 155.616 311.973L155.596 312.003Z" fill="white"/>
<path d="M358.05 197C356.55 197 355.04 196.922 353.55 196.765C349.19 196.315 344.92 195.2 340.91 193.459C339.6 192.892 338.31 192.256 337.06 191.562C335.81 190.867 334.6 190.114 333.43 189.312C332.26 188.51 331.12 187.639 330.04 186.72C328.96 185.8 327.9 184.822 326.91 183.815C325.92 182.807 324.96 181.722 324.07 180.616C323.18 179.511 322.32 178.347 321.53 177.164C320.74 175.98 320 174.718 319.32 173.447C318.64 172.175 318.02 170.845 317.47 169.515C316.92 168.184 316.41 166.786 315.99 165.387C315.56 163.978 315.19 162.531 314.9 161.073C314.61 159.606 314.38 158.1 314.23 156.603C314.08 155.087 314 153.542 314 152.006C314 150.47 314.08 148.925 314.23 147.409C314.38 145.912 314.6 144.416 314.9 142.939C315.19 141.491 315.56 140.044 315.99 138.625C316.41 137.227 316.91 135.838 317.47 134.488C318.03 133.138 318.65 131.827 319.32 130.556C319.99 129.284 320.73 128.042 321.53 126.849C322.33 125.655 323.17 124.491 324.06 123.386C324.95 122.281 325.91 121.205 326.9 120.188C327.89 119.17 328.95 118.202 330.03 117.283C331.11 116.373 332.26 115.493 333.42 114.691C334.58 113.888 335.81 113.126 337.05 112.441C338.29 111.756 339.59 111.111 340.9 110.543C351.82 105.819 364.27 105.819 375.18 110.543C376.49 111.111 377.78 111.746 379.03 112.441C380.28 113.135 381.49 113.888 382.66 114.691C383.83 115.493 384.97 116.363 386.05 117.283C387.13 118.202 388.19 119.17 389.18 120.188C390.17 121.205 391.13 122.281 392.02 123.386C392.91 124.491 393.77 125.655 394.56 126.849C395.35 128.042 396.09 129.294 396.77 130.556C397.45 131.818 398.07 133.158 398.62 134.488C399.17 135.818 399.68 137.227 400.1 138.616C400.53 140.024 400.89 141.472 401.18 142.929C401.47 144.396 401.7 145.903 401.85 147.399C402 148.915 402.08 150.461 402.08 151.996C402.08 153.532 402 155.077 401.85 156.594C401.7 158.09 401.48 159.587 401.18 161.064C400.89 162.511 400.53 163.959 400.1 165.377C399.67 166.776 399.18 168.165 398.62 169.505C398.06 170.855 397.45 172.165 396.77 173.437C396.09 174.708 395.35 175.951 394.56 177.144C393.77 178.337 392.92 179.501 392.02 180.607C391.12 181.712 390.17 182.788 389.18 183.805C388.19 184.822 387.14 185.8 386.05 186.71C384.96 187.62 383.82 188.5 382.66 189.302C381.5 190.104 380.27 190.867 379.03 191.552C377.79 192.237 376.49 192.882 375.18 193.449C369.78 195.787 363.94 196.99 358.04 196.99L358.05 197ZM358.13 127.357C345.3 127.357 334.86 138.332 334.86 151.82C334.86 165.309 345.3 176.283 358.13 176.283C370.96 176.283 381.4 165.309 381.4 151.82C381.4 138.332 370.96 127.357 358.13 127.357Z" fill="white"/>
<path d="M214.071 196.999C211.691 197.039 209.451 195.901 208.101 193.973C206.541 191.965 200.711 178.614 200.651 178.475C200.651 178.456 199.951 176.923 199.291 176.923H190.651C184.441 176.903 179.361 176.893 175.541 176.893C170.131 176.893 167.221 176.903 166.891 176.923C165.781 176.992 164.631 178.465 164.621 178.475C164.341 179.069 157.841 193.013 157.171 193.973C157.121 194.042 157.071 194.121 157.021 194.19C156.371 195.15 155.621 196.247 152.891 196.505C152.251 196.564 151.621 196.594 151.031 196.594C148.581 196.623 146.171 196.01 144.041 194.813C141.481 193.369 138.371 191.075 138.051 188.316C137.851 186.278 138.241 184.221 139.191 182.392C139.551 181.63 148.501 163.472 157.171 145.918V145.898L157.191 145.888C164.671 130.737 171.731 116.436 172.191 115.477C172.291 115.26 172.391 115.052 172.491 114.844C173.181 113.113 174.181 111.521 175.461 110.156C177.241 108.119 179.841 106.972 182.561 107.002C185.391 106.952 188.101 108.099 190.011 110.156C191.141 111.363 192.061 112.748 192.731 114.251C192.951 114.696 193.171 115.121 193.371 115.467C193.981 116.525 212.291 154.107 221.091 172.176L221.111 172.215C223.991 178.139 225.901 182.046 226.071 182.392C226.821 184.043 227.091 185.863 226.861 187.653C226.681 189.018 226.161 190.313 225.361 191.431C224.241 192.915 222.771 194.121 221.091 194.932C218.951 196.148 216.541 196.851 214.081 196.979L214.071 196.999ZM182.471 142.061C179.181 142.021 176.161 143.871 174.711 146.798C172.561 151.031 174.291 156.194 178.581 158.32C182.861 160.446 188.081 158.735 190.231 154.493C191.461 152.07 191.461 149.221 190.231 146.798C188.791 143.871 185.771 142.031 182.471 142.061Z" fill="white"/>
<path d="M284.68 197H242.64C241.12 197 239.63 196.547 238.37 195.682C237.14 194.847 236.18 193.67 235.6 192.302C235.2 191.357 235 190.341 235 189.315V114.685C235 113.156 235.45 111.657 236.31 110.39C237.14 109.153 238.31 108.187 239.67 107.604C240.61 107.201 241.62 107 242.64 107H282.66C283.45 107.02 284.23 107.161 284.98 107.422C285.93 107.744 286.86 108.147 287.74 108.64C289.94 109.877 291.98 111.376 293.81 113.126C294.85 114.102 295.83 115.138 296.74 116.234C297.69 117.361 298.56 118.558 299.35 119.805C300.15 121.063 300.85 122.391 301.45 123.759C302.05 125.137 302.52 126.555 302.85 128.024C303.45 130.7 303.63 133.446 303.38 136.172C303.17 138.395 302.7 140.578 301.97 142.68C301.68 143.515 301.35 144.35 300.99 145.145C300.7 145.788 300.39 146.402 300.07 146.996C299.78 147.529 299.46 148.052 299.12 148.555C299.12 148.555 299.68 149.299 300.43 150.526C300.88 151.261 301.32 152.035 301.74 152.82C302.26 153.806 302.75 154.832 303.18 155.848C304.27 158.362 305.08 160.988 305.6 163.684C305.89 165.203 306.07 166.732 306.13 168.271C306.16 169.076 306.16 169.89 306.13 170.685C306.1 171.52 306.02 172.345 305.92 173.16C305.44 176.469 304.31 179.648 302.59 182.515C301.76 183.933 300.82 185.291 299.79 186.569C297.86 188.963 295.65 191.115 293.21 192.976C292.17 193.771 291.07 194.495 289.93 195.149C288.35 196.175 286.55 196.809 284.68 197ZM256.85 128.134C256.44 128.134 256.1 128.476 256.1 128.889V174.85C256.1 175.262 256.44 175.604 256.85 175.604H277.9C278.09 175.584 278.29 175.554 278.47 175.503C278.87 175.403 279.26 175.282 279.63 175.131C280.14 174.93 280.64 174.679 281.1 174.377C281.65 174.025 282.16 173.612 282.61 173.129C284.19 171.349 284.95 168.975 284.69 166.601C284.63 164.992 284.2 163.412 283.44 161.994C282.87 160.978 282.08 160.113 281.13 159.449C280.75 159.187 280.35 158.956 279.93 158.755C279.6 158.594 279.25 158.463 278.9 158.352C278.57 158.252 278.24 158.171 277.9 158.121C277.54 158.121 275.62 158.121 273.52 158.121C272.18 158.121 271.03 158.121 270.1 158.121C269.44 158.131 268.8 157.97 268.23 157.638C267.8 157.377 267.44 157.015 267.17 156.582C266.97 156.25 266.81 155.898 266.7 155.526C266.65 155.365 266.62 155.214 266.59 155.053V144.541C266.61 144.36 266.64 144.179 266.69 143.998C266.79 143.585 266.95 143.183 267.15 142.801C267.4 142.318 267.77 141.906 268.21 141.594C268.77 141.222 269.42 141.02 270.09 141.02C270.71 141.02 271.35 141.01 272.06 141.01C272.93 141.01 273.75 141.01 274.51 141.02H274.74C275.39 141.02 276 141.03 276.51 141.03C276.97 141.03 277.31 141.03 277.57 141.02H277.62C278.62 141.061 279.6 140.759 280.41 140.175C281.56 139.23 282.1 137.459 282.04 134.894C281.98 132.259 281.33 130.368 280.13 129.271C279.89 129.05 279.62 128.859 279.33 128.698C279.07 128.557 278.79 128.436 278.51 128.356C278.02 128.215 277.51 128.134 276.99 128.114C276.47 128.094 274.44 128.084 270.98 128.084C265.08 128.084 256.92 128.114 256.84 128.114L256.85 128.134Z" fill="white"/>
</svg>
