<svg width="47" height="34" viewBox="0 0 47 34" fill="none" xmlns="http://www.w3.org/2000/svg">
<path d="M45.3333 5.33333V28.6667C45.3333 29.5507 44.9821 30.3986 44.357 31.0237C43.7319 31.6488 42.8841 32 42 32H5.33333C4.44928 32 3.60143 31.6488 2.97631 31.0237C2.35119 30.3986 2 29.5507 2 28.6667V5.33333M45.3333 5.33333C45.3333 4.44928 44.9821 3.60143 44.357 2.97631C43.7319 2.35119 42.8841 2 42 2H5.33333C4.44928 2 3.60143 2.35119 2.97631 2.97631C2.35119 3.60143 2 4.44928 2 5.33333M45.3333 5.33333L25.5633 19.02C25.006 19.4056 24.3444 19.6122 23.6667 19.6122C22.9889 19.6122 22.3273 19.4056 21.77 19.02L2 5.33333" stroke="#16223B" stroke-width="3" stroke-linecap="round" stroke-linejoin="round"/>
</svg>
