<svg width="44" height="41" viewBox="0 0 44 41" fill="none" xmlns="http://www.w3.org/2000/svg">
<path d="M5.82695 1.90264L4.10412 3.18985C2.5703 4.33653 1.39597 5.89751 0.719336 7.68907C0.0427059 9.48062 -0.108058 11.4282 0.284789 13.3025C1.51458 19.1752 5.68165 25.0486 12.7261 30.9596C19.753 36.8556 26.2477 39.938 32.236 40.1423C34.16 40.2078 36.0623 39.7195 37.7169 38.7353C39.3714 37.7512 40.7085 36.3126 41.5693 34.5906L42.5271 32.6711C43.1497 31.4264 43.2993 29.9981 42.948 28.6514C42.5968 27.3048 41.7685 26.1315 40.6172 25.3496L35.1111 21.608C34.367 21.1031 33.4836 20.8437 32.5847 20.8661C31.6858 20.8886 30.8165 21.1917 30.0985 21.7331L25.1793 25.4398L25.0461 25.5189C24.4686 25.8299 22.5795 25.023 19.7193 22.6227C16.7271 20.1115 15.6725 18.3896 16.0023 17.7255L17.8613 14.0751C18.5414 12.741 18.7868 11.2274 18.5631 9.74673C18.3393 8.26604 17.6576 6.89255 16.6137 5.81894L13.3822 2.49935C12.4102 1.50027 11.108 0.888746 9.71844 0.778779C8.32887 0.668811 6.94402 1.06888 5.82695 1.90264ZM11.3291 4.49969L14.5551 7.82125C15.1822 8.46476 15.5919 9.28855 15.7266 10.1769C15.8614 11.0652 15.7145 11.9735 15.3064 12.774L13.4403 16.43C12.2549 18.7991 13.9168 21.5011 17.876 24.8217C21.5992 27.9471 24.3938 29.1426 26.5099 27.9873L26.819 27.7954L31.8283 24.0253C32.0675 23.8445 32.3574 23.7432 32.6571 23.7355C32.9569 23.7278 33.2515 23.8141 33.4997 23.9824L39.0059 27.724C39.582 28.1147 39.9967 28.7014 40.1727 29.3749C40.3487 30.0485 40.274 30.763 39.9627 31.3856L39.0021 33.3061C38.3871 34.5356 37.432 35.5626 36.2504 36.2652C35.0688 36.9677 33.7103 37.3163 32.3364 37.2695C27.0821 37.0915 21.1525 34.2771 14.5748 28.7586C7.98044 23.2278 4.17446 17.8679 3.09602 12.7133C2.81515 11.3743 2.9227 9.98291 3.40601 8.70298C3.88932 7.42304 4.72827 6.30784 5.82408 5.48867L7.54691 4.20146C8.10564 3.78462 8.79691 3.58522 9.49181 3.64045C10.1867 3.69569 10.8378 4.00178 11.3237 4.50166" fill="#16223B"/>
</svg>
